<?xml version="1.0" encoding="utf-8"?>
<!-- Generator: Adobe Illustrator 24.0.0, SVG Export Plug-In . SVG Version: 6.00 Build 0)  -->
<svg version="1.1" id="Layer_1" xmlns="http://www.w3.org/2000/svg" xmlns:xlink="http://www.w3.org/1999/xlink" x="0px" y="0px"
	 viewBox="0 0 2000 1500" style="enable-background:new 0 0 2000 1500;" xml:space="preserve">
<style type="text/css">
	.st0{fill:url(#SVGID_1_);}
	.st1{fill:url(#SVGID_2_);}
	.st2{fill:url(#SVGID_3_);}
	.st3{fill:url(#SVGID_4_);}
	.st4{fill:url(#SVGID_5_);}
</style>
<g>
	<g>
		<g>
			<path d="M381.7,1188.6l32.6-42.5c-3.3,1.1-6.2,1.7-8.7,1.7c-10.5,0-19.1-3.2-25.7-9.5c-6.6-6.3-10-14.6-10-24.6
				c0-10.5,3.6-18.9,10.9-25.1c7.3-6.3,16.7-9.4,28.3-9.4c12,0,21.7,3.2,29.2,9.7c7.4,6.4,11.2,15,11.2,25.7
				c0,6.2-1.2,11.8-3.5,16.8c-2.4,5-5.8,10.7-10.4,16.9l-30.4,40.4H381.7z M409.7,1134.3c6.8,0,11.8-1.9,15.1-5.7
				c3.3-3.8,4.9-8.9,4.9-15.3c0-6-1.7-10.8-5.1-14.3c-3.4-3.5-8.2-5.3-14.5-5.3c-6.5,0-11.6,1.8-15.3,5.5c-3.7,3.7-5.5,8.5-5.5,14.5
				c0,6.4,1.7,11.4,5.2,15.1C397.8,1132.4,402.9,1134.3,409.7,1134.3z"/>
			<path d="M516.4,1187.1c-4.6,2-9.9,3-15.7,3s-11.1-1-15.7-3c-4.7-2-8.5-4.7-11.5-8.1c-3-3.4-5.6-7.5-7.6-12.2
				c-2-4.7-3.5-9.8-4.3-15.1c-0.9-5.3-1.3-10.9-1.3-17c0-6.1,0.4-11.9,1.3-17.2c0.9-5.4,2.4-10.4,4.4-15.2c2.1-4.8,4.6-8.9,7.7-12.2
				c3.1-3.4,6.9-6.1,11.5-8c4.6-2,9.8-3,15.6-3s11,1,15.6,3c4.6,2,8.4,4.7,11.5,8.1c3,3.4,5.6,7.5,7.6,12.3c2,4.8,3.5,9.8,4.4,15.2
				c0.9,5.3,1.3,11.1,1.3,17.2c0,6-0.4,11.7-1.3,17c-0.9,5.3-2.3,10.3-4.3,15.1c-2,4.8-4.5,8.9-7.6,12.2
				C524.9,1182.5,521.1,1185.1,516.4,1187.1z M490.7,1171.4c2.8,2.3,6.1,3.4,10.1,3.4c3.9,0,7.3-1.1,10-3.4c2.8-2.3,4.9-5.4,6.3-9.4
				c1.4-4,2.5-8.3,3.1-12.8c0.6-4.5,1-9.6,1-15.1c0-26.5-6.8-39.8-20.4-39.8c-13.5,0-20.4,13.2-20.6,39.5c0,5.6,0.3,10.7,1,15.2
				c0.6,4.6,1.7,8.9,3.2,12.9C485.8,1166,487.9,1169.2,490.7,1171.4z"/>
			<path d="M560,1188.6v-107.6h31.1c9.4,0,17.8,1.1,25.3,3.2c7.4,2.2,13.8,5.4,19.2,9.7c5.4,4.3,9.5,9.9,12.3,16.7
				c2.9,6.8,4.3,14.7,4.3,23.7c0,17.4-5.2,30.8-15.7,40.1c-10.5,9.4-25,14.1-43.6,14.1H560z M579.9,1172.6h14.3
				c12.3,0,21.6-3.2,28.1-9.7c6.4-6.4,9.6-15.8,9.6-28.2c0-13.2-3.3-22.8-9.9-28.8c-6.6-6-16.6-9-29.9-9h-12.1V1172.6z"/>
			<path d="M690.6,1190.1c-7.5,0-13.6-2.1-18.2-6.2c-4.6-4.1-6.9-10.1-6.9-17.9c0-8.4,2.7-14.6,8.2-18.6c5.5-4,13.8-6.6,24.8-7.7
				c1.5-0.2,3.2-0.4,4.9-0.6c1.8-0.2,3.7-0.4,6-0.6c2.2-0.2,3.9-0.4,5.2-0.5v-4.3c0-4.9-1.1-8.5-3.4-10.7c-2.3-2.2-5.7-3.3-10.3-3.3
				c-6.6,0-14.7,1.8-24.3,5.5c0-0.1-0.9-2.4-2.4-6.7c-1.6-4.3-2.4-6.5-2.4-6.6c9.5-4.1,19.8-6.1,30.9-6.1c10.9,0,18.8,2.4,23.7,7.1
				c4.9,4.7,7.4,12.4,7.4,23v52.7h-14.3c0-0.2-0.6-1.8-1.6-4.9c-1-3.1-1.5-4.7-1.5-4.9c-4,3.9-7.9,6.8-11.8,8.6
				C700.7,1189.2,696.1,1190.1,690.6,1190.1z M695.8,1176.4c4.5,0,8.3-1.1,11.6-3.2c3.3-2.1,5.7-4.7,7.1-7.7v-15.6
				c-0.1,0-1.4,0.1-3.9,0.3c-2.4,0.2-3.7,0.3-3.9,0.3c-7.8,0.7-13.5,2.2-17.1,4.4c-3.6,2.3-5.4,5.9-5.4,10.9c0,3.4,1,6.1,3,7.9
				C689.2,1175.5,692.1,1176.4,695.8,1176.4z"/>
			<path d="M757.4,1222.6c-3.1,0-6.5-0.2-10-0.6l-1-14.9c2.3,0.2,5.1,0.4,8.6,0.4c4.5,0,8-0.9,10.7-2.6c2.7-1.8,4.9-4.9,6.7-9.4
				c0.2-0.5,1.2-3.3,2.9-8.3l-32.5-79.3h20.6l21.2,58.5c1.6-5.8,5.1-16.6,10.5-32.5c5.5-15.8,8.5-24.5,9-26.1h20.6
				c-22.4,59.2-33.7,89-33.9,89.5c-3.5,9.1-7.9,15.5-13.1,19.4C772.5,1220.6,765.7,1222.6,757.4,1222.6z"/>
			<path d="M860.9,1190c-11.9,0-21.4-2-28.6-6.1l2-14.5c3.2,1.8,7.3,3.3,12.3,4.7c5,1.4,9.5,2.1,13.7,2.1c4.3,0,7.6-0.8,10-2.4
				c2.4-1.6,3.6-3.9,3.6-7c0-2.8-1.1-5-3.3-6.6c-2.2-1.6-6.5-3.6-12.7-6c-2.2-0.8-3.6-1.3-4.2-1.5c-7.4-2.9-12.8-6.1-16.1-9.7
				c-3.3-3.5-4.9-8.4-4.9-14.4c0-7.3,2.7-13,8-16.9c5.3-3.9,12.7-5.9,22.2-5.9c10.3,0,19.3,1.9,27.1,5.8l-4.8,13.3
				c-7.7-3.6-15-5.4-22-5.4c-3.9,0-6.9,0.6-9.1,1.9c-2.2,1.3-3.3,3.3-3.3,5.9c0,2.5,1.1,4.4,3.2,5.8c2.1,1.4,6.2,3.2,12.3,5.5
				c0.2,0,0.8,0.3,1.9,0.7c1.1,0.4,1.9,0.7,2.5,1c7.4,2.7,12.8,5.9,16.3,9.7c3.5,3.7,5.2,8.6,5.2,14.7c0,8.1-2.8,14.3-8.2,18.7
				C878.6,1187.8,870.9,1190,860.9,1190z"/>
			<path d="M949.1,1173c-6.4-1.4-11.5-4.5-15.3-9.3c-5.3-6.8-8-16.4-8-28.7c0-12.5,2.7-22.2,8-29.1c3.8-4.9,8.9-8.1,15.2-9.5v-16.4
				c-12.3,1.4-22.3,6.1-30,14.1c-9.4,9.7-14.1,23.3-14.1,40.7c0,17.3,4.7,30.8,14.1,40.7c7.7,8.1,17.7,12.8,30.1,14.3V1173z"/>
			<path d="M995.8,1094.1c-7.7-8.1-17.8-12.8-30.3-14.2v16.4c6.5,1.4,11.7,4.6,15.6,9.6c5.3,6.9,8,16.6,8,29.2c0,12.4-2.7,22-8,28.8
				c-3.8,4.9-9,8-15.6,9.4v16.6c12.4-1.4,22.5-6.2,30.2-14.3c9.4-9.8,14.1-23.4,14.1-40.5C1009.9,1117.4,1005.2,1103.8,995.8,1094.1
				z"/>
			<path d="M1032.1,1188.6v-67.9h-12.8l1.2-11.3l11.5-1.5v-4.5c0-4.9,0.5-9.1,1.4-12.6c0.9-3.5,2.4-6.5,4.4-8.9
				c2.1-2.5,4.8-4.3,8.3-5.5c3.5-1.2,7.7-1.8,12.7-1.8c4.9,0,9.9,0.5,15,1.4l-1.7,14.3c-4-0.5-7.2-0.8-9.5-0.8c-4.1,0-7,1-8.8,3
				c-1.7,2-2.6,5.3-2.6,9.9v5.5h19v12.8h-19v67.9H1032.1z"/>
			<path d="M1084.7,1188.6v-107.6h31.1c9.4,0,17.8,1.1,25.3,3.2c7.4,2.2,13.8,5.4,19.2,9.7c5.4,4.3,9.5,9.9,12.3,16.7
				c2.9,6.8,4.3,14.7,4.3,23.7c0,17.4-5.2,30.8-15.7,40.1c-10.5,9.4-25,14.1-43.6,14.1H1084.7z M1104.6,1172.6h14.3
				c12.3,0,21.6-3.2,28.1-9.7c6.4-6.4,9.6-15.8,9.6-28.2c0-13.2-3.3-22.8-9.9-28.8c-6.6-6-16.6-9-29.9-9h-12.1V1172.6z"/>
			<path d="M1231.3,1190.1c-13,0-23.1-3.7-30.3-11.2c-7.2-7.5-10.8-17.8-10.8-31c0-12.8,3.4-23,10.2-30.6
				c6.8-7.6,16.1-11.4,27.8-11.5c11.1,0,19.7,3.5,25.9,10.4c6.1,7,9.2,16.2,9.2,27.7c0,0.8,0,2.2,0,4c0,1.9,0,3.2,0,4.1h-53.7
				c0.2,7.5,2.3,13.4,6.2,17.5c3.9,4.1,9.4,6.2,16.3,6.2c8.8,0,17.3-2.3,25.4-6.9l2.7,13.7
				C1252.1,1187.6,1242.4,1190.1,1231.3,1190.1z M1209.9,1140h35.3c0-6.6-1.5-11.6-4.5-15.1c-3-3.5-7.1-5.3-12.4-5.3
				c-4.9,0-9.1,1.7-12.5,5.1C1212.3,1128.1,1210.4,1133.2,1209.9,1140z"/>
			<path d="M1301.3,1188.6l-32.2-80.7h20.4c0.8,2.2,3.3,9,7.5,20.5c4.2,11.5,7,19.3,8.3,23.5c2.8,8.1,4.8,14.3,6,18.4
				c0,0,0.4-1.6,1.2-4.8c0.8-3.1,1.6-6.1,2.4-8.9c0.8-2.8,1.2-4.4,1.4-5c0-0.1,2.3-6.9,6.7-20.3c4.4-13.4,7.1-21.3,7.9-23.5h20.3
				l-30.6,80.7H1301.3z"/>
			<path d="M1402.7,1172.9c-6.2-1.4-11.3-4.5-15-9.3c-5.3-6.8-8-16.4-8-28.7c0-12.5,2.7-22.2,8-29.1c3.7-4.8,8.7-8,15-9.4v-16.5
				c-12.2,1.5-22.1,6.2-29.8,14.1c-9.4,9.7-14.1,23.3-14.1,40.7c0,17.3,4.7,30.8,14.1,40.7c7.7,8,17.6,12.8,29.8,14.2V1172.9z"/>
			<path d="M1449.7,1094.1c-7.8-8.1-18-12.9-30.6-14.2v16.3c6.6,1.3,11.9,4.5,15.8,9.6c5.3,6.9,8,16.6,8,29.2c0,12.4-2.7,22-8,28.8
				c-3.9,5-9.2,8.1-15.8,9.4v16.5c12.5-1.4,22.7-6.1,30.5-14.3c9.4-9.8,14.1-23.4,14.1-40.5
				C1463.7,1117.4,1459,1103.8,1449.7,1094.1z"/>
			<path d="M1480.7,1222.1v-114.3h16.5l2.1,11.3c2.6-4.3,6.2-7.6,10.5-9.9c4.4-2.3,9.3-3.5,14.7-3.5c6.6,0,12.4,1.8,17.4,5.5
				c5,3.7,8.8,8.7,11.4,15c2.6,6.3,3.9,13.5,3.9,21.5c0,12.5-3,22.7-9.1,30.5c-6,7.9-14.2,11.8-24.6,11.8c-5.1,0-9.7-1-13.8-3
				c-4.1-2-7.6-4.8-10.4-8.3c0.4,7.1,0.6,11,0.6,11.9v30.5L1480.7,1222.1z M1519.5,1175.4c5.7,0,10.2-2.4,13.6-7.2
				c3.3-4.8,5-11.7,5-20.6c0-9.1-1.7-15.9-5-20.4c-3.3-4.6-8-6.8-13.9-6.8c-12.7,0-19.2,8.7-19.3,26c0,10,1.7,17.3,5,22
				C1508.1,1173.1,1513,1175.4,1519.5,1175.4z"/>
			<path d="M1598.8,1190c-11.9,0-21.4-2-28.6-6.1l2-14.5c3.2,1.8,7.3,3.3,12.3,4.7c5,1.4,9.5,2.1,13.7,2.1c4.3,0,7.6-0.8,10-2.4
				c2.4-1.6,3.6-3.9,3.6-7c0-2.8-1.1-5-3.3-6.6c-2.2-1.6-6.5-3.6-12.7-6c-2.2-0.8-3.6-1.3-4.2-1.5c-7.4-2.9-12.8-6.1-16.1-9.7
				c-3.3-3.5-4.9-8.4-4.9-14.4c0-7.3,2.7-13,8-16.9c5.3-3.9,12.7-5.9,22.2-5.9c10.3,0,19.3,1.9,27.1,5.8l-4.8,13.3
				c-7.7-3.6-15-5.4-22-5.4c-3.9,0-6.9,0.6-9.1,1.9c-2.2,1.3-3.3,3.3-3.3,5.9c0,2.5,1.1,4.4,3.2,5.8c2.1,1.4,6.2,3.2,12.3,5.5
				c0.2,0,0.8,0.3,1.9,0.7c1.1,0.4,1.9,0.7,2.5,1c7.4,2.7,12.8,5.9,16.3,9.7c3.5,3.7,5.2,8.6,5.2,14.7c0,8.1-2.8,14.3-8.2,18.7
				C1616.5,1187.8,1608.8,1190,1598.8,1190z"/>
		</g>
	</g>
	<g>
		<g>
			<g>
				<g>
					<linearGradient id="SVGID_1_" gradientUnits="userSpaceOnUse" x1="1091.0248" y1="832.8361" x2="1396.0465" y2="832.8361">
						<stop  offset="0" style="stop-color:#0025AD"/>
						<stop  offset="1" style="stop-color:#A50664"/>
					</linearGradient>
					<path class="st0" d="M1098.8,811.9c4.1,0,7.5-3.2,7.7-7.3l63.4-10.1c1.1,2.9,3.8,4.9,7,5l4.7,29.8c-1.6,1.1-2.6,2.9-2.6,4.9
						c0,0.4,0.1,0.9,0.1,1.3l-20.5,20.4c-0.6-0.2-1.3-0.3-2-0.3c-3.4,0-6.2,2.8-6.2,6.2s2.8,6.2,6.2,6.2s6.2-2.8,6.2-6.2
						c0-0.4,0-0.8-0.1-1.2l20.7-20.7c0.4,0.1,0.9,0.2,1.4,0.2c3.3,0,5.9-2.6,5.9-5.9c0-0.5-0.1-0.9-0.2-1.4l7.9-7.9
						c10.8-10.8,24.4-17.3,38.4-19.6c1.5,3,4.5,5,8.1,5c3.8,0,7.1-2.4,8.4-5.8c16.4,1.2,32.4,8,44.9,20.5c0.6,0.6,1.1,1.1,1.6,1.7
						c0,0.2,0,0.4,0,0.7c0,3.9,2.9,7.2,6.7,7.7c12.5,18.2,15.5,41.1,8.9,61.5c-2.3,0.8-3.9,3-3.9,5.5c0,1,0.2,1.9,0.7,2.7
						c-3.4,7.3-8.1,14.1-14.1,20.1c-8.3,8.3-18.6,14.4-29.8,17.7l-13.6,4l14,2c6.1,0.9,11.3,1.3,16.3,1.3c0,0,0,0,0,0
						c39.3,0,75.8-20.8,95.7-53.1c2.7-0.2,4.9-2.5,4.9-5.2c0-0.9-0.2-1.7-0.6-2.4c1.3-2.6,2.5-5.3,3.6-8c5.7-14,8-28.7,6.9-43.7
						c-0.6-8-2-15.9-4.4-23.8c1-1.5,1.6-3.3,1.6-5.2c0-4.3-2.9-7.9-6.9-9c-0.6-1.2-1.1-2.5-1.7-3.7c-8.4-17.2-21.2-33.2-36.8-46.1
						c-10.6-8.8-22.4-16-35.3-21.4c-0.4-3-3-5.4-6.1-5.4c-1.5,0-2.9,0.6-4,1.5c-1.8-0.6-3.7-1.2-5.6-1.8
						c-18.2-5.4-37.3-7.4-56.9-6.1c-11.5,0.8-22.7,2.7-33.6,5.8c-2.3-3.9-6.6-6.5-11.4-6.5c-7.4,0-13.3,6-13.3,13.3
						c0,0.7,0.1,1.4,0.2,2.1c-17.1,7.8-32.3,18.3-45.2,31.1l-34.5,34.6c-0.9-0.4-1.9-0.6-2.9-0.6c-4.3,0-7.7,3.5-7.7,7.7
						S1094.5,811.9,1098.8,811.9z M1194.6,742.4c6,0,11-3.9,12.7-9.3l34.5,7.3c0.1,0.5,0.3,1,0.5,1.5l-60.2,43.7
						c-0.4-0.3-0.8-0.6-1.3-0.8l11.8-42.6C1193.3,742.4,1193.9,742.4,1194.6,742.4z M1300.4,731.5c0.8,1.9,2.6,3.4,4.7,3.7l2.1,23.9
						c-6.6,1.2-11.6,7-11.6,14c0,1,0.1,2,0.3,2.9l-43.4,20.2c-1.3-1.8-3.2-3.2-5.4-3.7l2.1-47.2c2.6-0.5,4.6-2.7,4.9-5.4
						L1300.4,731.5z M1374.9,811.7l-14.3,8.5c-2.1-2.6-5.3-4.3-9-4.3c-5.8,0-10.6,4.3-11.4,9.9h-25.1c-0.6-2.9-2.9-5.3-5.8-6
						l1.3-32.5c5.3-0.3,9.9-3.6,12-8.3l52.7,24.8c-0.8,1.3-1.2,2.9-1.2,4.6C1374.3,809.6,1374.6,810.7,1374.9,811.7z M1375.3,890.7
						l-52.4,8.9c-0.3-0.7-0.7-1.3-1.3-1.8c0.3-1,0.6-2,0.9-3l25.8-56.5c1,0.3,2.2,0.5,3.3,0.5c1.1,0,2.2-0.2,3.2-0.5l22.1,49.2
						C1376.2,888.4,1375.5,889.5,1375.3,890.7z M1194.2,820.5l-8,7.9c-0.4-0.1-0.9-0.2-1.3-0.2c-0.1,0-0.2,0-0.3,0l-4.6-29.4
						c2.9-1.1,4.9-3.9,4.9-7.2c0-1.2-0.3-2.3-0.7-3.3l59.7-44.3c0.6,0.5,1.3,0.9,2.1,1.1l-2.1,47.2c-3.7,0.5-6.7,3.2-7.6,6.7
						C1220.9,801.5,1206.1,808.7,1194.2,820.5z M1255,798.5l41.9-19.5c2,4.3,6,7.5,10.8,8.2l-1.3,32.5c-1.2,0.2-2.3,0.7-3.3,1.4
						c-0.2-0.2-0.3-0.3-0.4-0.5C1289.4,807.3,1272.4,799.9,1255,798.5z M1312.9,833.1c1.2-1.1,2.1-2.6,2.4-4.2h25.1
						c0.5,3.4,2.4,6.4,5.2,8.1l-20.8,45.4C1326.5,865.5,1322.5,848,1312.9,833.1z M1285.3,943.7c-0.9,0-1.7,0-2.6,0
						c7.4-3.7,14.2-8.6,20.1-14.4c6.4-6.4,11.4-13.6,15-21.3c3-0.1,5.4-2.4,5.7-5.3l52-8.8C1356.7,924.2,1322.3,943.7,1285.3,943.7z
						 M1383.1,878.8c-1,2.5-2.1,4.9-3.3,7.3l-22-49c3.2-2,5.4-5.6,5.4-9.7c0-1.6-0.3-3.1-0.9-4.5l14.2-8.5c1.7,2,4.3,3.4,7.1,3.4
						c0.8,0,1.6-0.1,2.4-0.3C1390.9,834.6,1392.4,855.9,1383.1,878.8z M1378.7,798.5c0.3,0.5,0.5,1.1,0.8,1.6
						c-0.7,0.4-1.4,0.8-2,1.3l-53.7-25.3c0.2-1,0.3-2,0.3-3c0-7.7-6.1-14-13.8-14.2l-2.1-23.9c0.6-0.2,1.2-0.6,1.7-1
						c12,5.1,23.3,11.9,33.6,20.5C1358.5,766.8,1370.7,782.1,1378.7,798.5z M1297.1,729.2l-43.6,7.6c-1-2.2-3.1-3.7-5.7-3.7
						c-2.5,0-4.6,1.5-5.6,3.6l-34.4-6.6c0-0.3,0-0.7,0-1c0-0.4,0-0.8-0.1-1.2C1237.2,719.8,1268.5,720.1,1297.1,729.2z
						 M1140.6,766.7c12.7-12.6,27.3-22.6,43.1-29.9c1.5,2.1,3.6,3.7,6,4.7l-11.8,42.5c-0.2,0-0.5,0-0.7,0c-4.2,0-7.6,3.3-7.7,7.4
						l-63.4,10.1c0,0,0-0.1,0-0.1L1140.6,766.7z"/>
					<linearGradient id="SVGID_2_" gradientUnits="userSpaceOnUse" x1="773.7637" y1="920.7142" x2="1078.7854" y2="920.7142">
						<stop  offset="0" style="stop-color:#0025AD"/>
						<stop  offset="1" style="stop-color:#A50664"/>
					</linearGradient>
					<path class="st1" d="M1071,941.7c-4.1,0-7.5,3.2-7.7,7.3l-63.4,10.1c-1.1-2.9-3.8-4.9-7-5l-4.7-29.8c1.6-1.1,2.6-2.9,2.6-4.9
						c0-0.4-0.1-0.9-0.1-1.3l20.5-20.4c0.6,0.2,1.3,0.3,2,0.3c3.4,0,6.2-2.8,6.2-6.2c0-3.4-2.8-6.2-6.2-6.2c-3.4,0-6.2,2.8-6.2,6.2
						c0,0.4,0,0.8,0.1,1.2l-20.7,20.7c-0.4-0.1-0.9-0.2-1.4-0.2c-3.3,0-5.9,2.6-5.9,5.9c0,0.5,0.1,0.9,0.2,1.4l-7.9,7.9
						c-10.8,10.8-24.4,17.3-38.4,19.6c-1.5-3-4.5-5-8.1-5c-3.8,0-7.1,2.4-8.4,5.8c-16.4-1.2-32.4-8-44.9-20.5
						c-0.6-0.6-1.1-1.1-1.6-1.7c0-0.2,0-0.4,0-0.7c0-3.9-2.9-7.2-6.7-7.7c-12.5-18.2-15.5-41.1-8.9-61.5c2.3-0.8,3.9-3,3.9-5.5
						c0-1-0.2-1.9-0.7-2.7c3.4-7.3,8.1-14.1,14.1-20.1c8.3-8.3,18.6-14.4,29.8-17.7l13.6-4l-14-2c-6.1-0.9-11.3-1.3-16.3-1.3
						c0,0,0,0,0,0c-39.3,0-75.8,20.8-95.7,53.1c-2.7,0.2-4.9,2.5-4.9,5.2c0,0.9,0.2,1.7,0.6,2.4c-1.3,2.6-2.5,5.3-3.6,8
						c-5.7,14-8,28.7-6.9,43.7c0.6,8,2,15.9,4.4,23.8c-1,1.5-1.6,3.3-1.6,5.2c0,4.3,2.9,7.9,6.9,9c0.6,1.2,1.1,2.5,1.7,3.7
						c8.4,17.2,21.2,33.2,36.8,46.1c10.6,8.8,22.4,16,35.3,21.4c0.4,3,3,5.4,6.1,5.4c1.5,0,2.9-0.6,4-1.5c1.8,0.6,3.7,1.2,5.6,1.8
						c14.6,4.3,29.8,6.5,45.3,6.5c3.8,0,7.7-0.1,11.6-0.4c11.5-0.8,22.7-2.7,33.6-5.8c2.3,3.9,6.6,6.5,11.4,6.5
						c7.4,0,13.3-6,13.3-13.3c0-0.7-0.1-1.4-0.2-2.1c17.1-7.8,32.3-18.3,45.2-31.1l34.5-34.6c0.9,0.4,1.9,0.6,2.9,0.6
						c4.3,0,7.7-3.5,7.7-7.7C1078.8,945.2,1075.3,941.7,1071,941.7z M975.3,1011.1c-5.4,0-10.1,3.2-12.2,7.9l-35-12.4
						c-0.1-0.6-0.2-1.2-0.5-1.7l60-37.2c0.4,0.4,0.9,0.7,1.4,1l-11.8,42.6C976.5,1011.2,975.9,1011.1,975.3,1011.1z M869.2,1021.6
						c-0.9-1.7-2.5-2.9-4.5-3.3l-2.1-23.9c6.6-1.2,11.6-7,11.6-14c0-1-0.1-2-0.3-2.9l43.4-20.2c1.3,1.8,3.2,3.1,5.4,3.6l-2.1,40.3
						c-2.8,0.6-4.9,3-4.9,6L869.2,1021.6z M794.9,941.8l14.3-8.5c2.1,2.6,5.3,4.3,9,4.3c5.8,0,10.6-4.3,11.4-9.9h25.1
						c0.6,2.9,2.9,5.3,5.8,6l-1.3,32.5c-5.3,0.3-9.9,3.6-12,8.3l-52.7-24.8c0.8-1.3,1.2-2.9,1.2-4.6
						C795.5,943.9,795.3,942.8,794.9,941.8z M794.5,862.8l52.4-8.9c0.3,0.7,0.7,1.3,1.3,1.8c-0.3,1-0.6,2-0.9,3l-25.8,56.5
						c-1-0.3-2.2-0.5-3.3-0.5c-1.1,0-2.2,0.2-3.2,0.5L792.7,866C793.6,865.2,794.3,864.1,794.5,862.8z M975.6,933l8-7.9
						c0.4,0.1,0.9,0.2,1.3,0.2c0.1,0,0.2,0,0.3,0l4.6,29.4c-2.9,1.1-4.9,3.9-4.9,7.2c0,1,0.2,2,0.6,2.9l-59.3,38.2
						c-0.7-0.6-1.5-1.1-2.4-1.4l2-40.3c3.7-0.4,6.7-3.2,7.6-6.7C948.9,952,963.7,944.9,975.6,933z M914.8,955.1l-41.9,19.5
						c-2-4.3-6-7.5-10.8-8.2l1.3-32.5c1.2-0.2,2.3-0.7,3.3-1.4c0.2,0.2,0.3,0.3,0.4,0.5C880.4,946.2,897.4,953.6,914.8,955.1z
						 M856.9,920.4c-1.2,1.1-2.1,2.6-2.4,4.2h-25.1c-0.5-3.4-2.4-6.4-5.2-8.1l20.8-45.4C843.3,888.1,847.3,905.6,856.9,920.4z
						 M884.5,809.9c0.9,0,1.7,0,2.6,0c-7.4,3.7-14.2,8.6-20.1,14.4c-6.4,6.4-11.4,13.6-15,21.3c-3,0.1-5.4,2.4-5.7,5.3l-52,8.8
						C813.1,829.3,847.5,809.9,884.5,809.9z M786.7,874.7c1-2.5,2.1-4.9,3.3-7.3l22,49c-3.2,2-5.4,5.6-5.4,9.7
						c0,1.6,0.3,3.1,0.9,4.5l-14.2,8.5c-1.7-2-4.3-3.4-7.1-3.4c-0.8,0-1.6,0.1-2.4,0.3C778.9,918.9,777.4,897.6,786.7,874.7z
						 M791.1,955c-0.3-0.5-0.5-1.1-0.8-1.6c0.7-0.4,1.4-0.8,2-1.3l53.7,25.3c-0.2,1-0.3,2-0.3,3c0,7.7,6.1,14,13.8,14.2l2.1,23.9
						c-0.6,0.2-1.2,0.6-1.7,1c-12-5.1-23.3-11.9-33.6-20.5C811.3,986.7,799.1,971.5,791.1,955z M871,1023.8l45.6-13.3
						c1.1,1.8,3.1,3.1,5.4,3.1c2.2,0,4.2-1.2,5.3-3l35,11.2c-0.2,0.9-0.3,1.7-0.3,2.6c0,0.4,0,0.8,0.1,1.2
						C932.1,1034,900,1033.5,871,1023.8z M1029.2,986.8c-12.7,12.6-27.3,22.6-43.1,29.9c-1.5-2.1-3.6-3.7-6-4.7l11.8-42.5
						c0.2,0,0.5,0,0.7,0c4.2,0,7.6-3.3,7.7-7.4l63.4-10.1c0,0,0,0.1,0,0.1L1029.2,986.8z"/>
				</g>
			</g>
			<linearGradient id="SVGID_3_" gradientUnits="userSpaceOnUse" x1="766.1575" y1="875.5201" x2="1404.113" y2="875.5201">
				<stop  offset="0" style="stop-color:#0025AD"/>
				<stop  offset="1" style="stop-color:#A50664"/>
			</linearGradient>
			<path class="st2" d="M1285.3,963.2c-31.1,0-59.6-11.2-81.4-29.7c-2.6-2-5.1-4-7.5-6.4l-65.3-64l-74.9-73.5l-24.4-23.9
				c-60.8-60.5-159.5-60.5-220.2,0.2c-29.6,29.6-44.7,68.2-45.5,107c16-49.3,63.2-85.1,118.8-85.1c31.1,0,59.6,11.2,81.4,29.7
				c2.6,2,5.1,4,7.5,6.4l164.5,161.4c18.9,18.9,41.6,31.9,65.6,39c3.7,1.1,7.3,2,11.1,2.8c50.1,10.9,104.7-3.1,143.5-42
				c29.6-29.6,44.7-68.1,45.5-107C1388.1,927.4,1340.9,963.2,1285.3,963.2z"/>
		</g>
		<g>
			<linearGradient id="SVGID_4_" gradientUnits="userSpaceOnUse" x1="667.4361" y1="621.7529" x2="695.3327" y2="415.6279">
				<stop  offset="0" style="stop-color:#0025AD"/>
				<stop  offset="1" style="stop-color:#A50664"/>
			</linearGradient>
			<path class="st3" d="M612.5,534.1l8.9-3.7L765,463.2l156.1-185.7l-251.5,56.3L463.8,596.4l87-36.4
				c-10.6,33.8-18.1,50.1-15.3,94.1c-6.7,9.8-13.4,21.6-7.8,29c4.4,5.8,12.3,8,20.9,6.8c1.3,2.6,2.6,5.2,3.8,7.8
				c16.5,35.5-11.2,76.5-11.2,76.5l21.1-9.2c16.7-7.3,28.6-22.6,31.3-40.6c0.1-0.4,0.1-0.7,0.2-1c2.8-18.9-1.1-38.1-10.9-54.5
				c-0.8-1.3-1.4-2.2-1.6-2.4c4.5-8.7,5.7-18.6,0-24.2c-6-5.8-18.6-3.3-20.3-2.9c-0.7-130,139.8-236.4,152.8-245.9
				c0.6-0.4,1.4-0.5,2.1-0.3c1.6,0.6,1.9,2.6,0.7,3.7C701.7,409.5,634.4,470.2,612.5,534.1z"/>
			<linearGradient id="SVGID_5_" gradientUnits="userSpaceOnUse" x1="1078.9738" y1="677.4498" x2="1106.8704" y2="471.3247">
				<stop  offset="0" style="stop-color:#0025AD"/>
				<stop  offset="1" style="stop-color:#A50664"/>
			</linearGradient>
			<path class="st4" d="M1498.3,650.8c-20.6-19.7-47-32.4-76.2-36.8l-7.3-1.1l0.1-7.4c0.2-19.1-4.5-38.3-13.5-55.5
				c-11.7-22.3-30.2-40.8-53.3-53.4c-21.1-11.6-45.4-17.7-70-17.7c-2.3,0-4.5,0-6.8,0.2c-17.6,0.8-34.7,4.6-50.8,11.5l-9.5,4
				l-2.2-10.1c-5.6-26.3-20.1-49.8-41.7-68c-25.2-21.2-57.8-32.8-91.9-32.8c-36.7,0-71,13.1-96.6,36.9c-18.3,17-30.9,38.4-36.4,61.9
				l-2.6,11.1l-9.9-5.7c-6-3.5-11.4-6.1-17-8.4c-11.1-4.6-22.5-7.2-35.4-8.4l2.4-2c13.9-9.9,25.2-23.2,32.3-38.7
				c3.1-6.8,4.8-12.9,5.1-18.2c0.3-5.1-0.8-9.4-3.3-12.7l-31.8-41.1L779.6,482.4l-149.5,65.5l33,42.7c2.5,3.3,6.4,5.5,11.4,6.6
				c2.5,0.5,5.3,0.8,8.3,0.8c11.2,0,22.1-3.9,31.2-10.4l16.7-11.9c-0.8,5.6-1.3,11.3-1.3,17c0,4.1,0.2,8.4,0.7,12.8l0.9,7.9
				l-7.8,1.4c-27.9,5.2-53,18.1-72.5,37.3c-23.7,23.2-36.7,53.5-36.7,85.2c0,32.3,13.5,63,37.9,86.4c24.6,23.6,57.8,37.2,93.3,38.4
				l0.4,0l0.4,0l21.7,0c0.5-2.6,1.7-4.9,3.4-6.7c0.4-2.9,0.9-5.7,1.5-8.6c0-0.1,0.1-0.1,0.1-0.2h-18.5v0.4l-8.8-0.3
				c-30.3-1.2-58.6-13-79.7-33.2c-21.4-20.5-33.2-47.6-33.2-76.2c0-28.1,11.4-54.8,32.1-75.2c20.6-20.3,48.4-32.4,78.4-34.2l1.2-0.1
				l0.6,0c14.8,0.3,29,2.9,42,7.7c0,0.6-0.1,1.2-0.1,1.8c0,14,11.4,25.4,25.4,25.4c14,0,25.4-11.4,25.4-25.4S826,611.9,812,611.9
				c-7.8,0-14.8,3.5-19.4,9.1c-11.6-4.2-23.8-6.9-36.4-8l-6.8-0.6l-0.9-6.8c-0.6-4.2-0.8-8.6-0.8-12.9c0-28.6,12-55.5,33.9-75.6
				c21.6-20,50.4-31,81-31c16.9,0,30,2.2,42.3,7.3c10.4,4.3,20.7,10.8,30.2,17.2l3.8,2.5v117.6c-9.1,3.9-15.5,12.9-15.5,23.4
				c0,14,11.4,25.4,25.4,25.4c14,0,25.4-11.4,25.4-25.4c0-11.1-7.1-20.5-17-23.9v-27.6h55.3c19,0,36.9-6.8,50.3-19.2
				c13.3-12.2,20.6-28.3,20.6-45.5v-19.1c10-3.4,17.1-12.9,17.1-24c0-14-11.4-25.4-25.4-25.4c-14,0-25.4,11.4-25.4,25.4
				c0,10.5,6.3,19.4,15.4,23.3v19.8c0,13.2-5.6,25.7-15.7,35c-9.9,9.2-23.1,14.2-36.9,14.2h-55.3v-69h-0.1l0-8.5
				c0.1-29.9,12.4-57.7,34.8-78.5c22-20.5,51.6-31.8,83.2-31.8c29.4,0,57.5,10,79.2,28.3c20.6,17.3,33.9,40.6,37.7,65.8h0.4l0.1,1.2
				h0.1l0.3,6.3l0.7,6.8h-0.4l0,0.9l-0.1,9.4V610c-9.2,3.8-15.8,12.9-15.8,23.5c0,14,11.4,25.4,25.4,25.4c14,0,25.4-11.4,25.4-25.4
				c0-11-7-20.3-16.8-23.9v-96.6l4.3-2.5c17-9.7,36.5-15.3,56.5-16.2c1.9-0.1,3.9-0.1,5.8-0.1c21.2,0,42.1,5.3,60.4,15.3
				c20.1,11,36.2,27.1,46.4,46.6c7.9,15,12.1,31.8,12,48.5l0,7.7l-7.6,0.8c-14.7,1.5-28.8,5.1-42,10.6c-0.3,0.1-0.6,0.3-0.9,0.4
				c-3.7-2.1-7.9-3.3-12.5-3.3c-14,0-25.4,11.4-25.4,25.4c0,14,11.4,25.4,25.4,25.4c14,0,25.4-11.4,25.4-25.4c0-3.4-0.7-6.6-1.9-9.6
				c12.2-4.9,25.3-7.8,39-8.6v-0.6l8.8,0.3c30.3,1.2,58.6,13,79.7,33.2c21.4,20.5,33.2,47.6,33.2,76.3c0,28.6-11.8,55.7-33.2,76.2
				c-21.1,20.2-49.4,32-79.7,33.2l-8.8,0.3v-0.3h-4.7v12.2c0,1.2-0.1,2.3-0.3,3.4h13l0.5-0.1l0.4,0c35.6-1.2,68.7-14.9,93.3-38.4
				c24.5-23.4,37.9-54.1,37.9-86.4C1536.2,704.9,1522.7,674.2,1498.3,650.8z"/>
		</g>
	</g>
</g>
</svg>
