<?xml version="1.0" encoding="utf-8"?>
<!-- Generator: Adobe Illustrator 24.0.0, SVG Export Plug-In . SVG Version: 6.00 Build 0)  -->
<svg version="1.1" id="Layer_1" xmlns="http://www.w3.org/2000/svg" xmlns:xlink="http://www.w3.org/1999/xlink" x="0px" y="0px"
	 viewBox="0 0 2000 1500" style="enable-background:new 0 0 2000 1500;" xml:space="preserve">
<style type="text/css">
	.st0{fill:url(#SVGID_1_);}
	.st1{fill:url(#SVGID_2_);}
	.st2{fill:url(#SVGID_3_);}
	.st3{fill:url(#SVGID_4_);}
	.st4{fill:url(#SVGID_5_);}
</style>
<g>
	<g>
		<g>
			<path d="M299.8,1246.6l36.9-48.1c-3.7,1.3-7,1.9-9.9,1.9c-11.9,0-21.6-3.6-29.2-10.8c-7.5-7.2-11.3-16.5-11.3-27.9
				c0-11.9,4.1-21.3,12.4-28.4c8.2-7.1,18.9-10.6,32.1-10.6c13.6,0,24.6,3.6,33,10.9c8.4,7.3,12.6,17,12.6,29.1c0,7-1.3,13.3-4,19
				c-2.7,5.7-6.6,12.1-11.7,19.1l-34.4,45.8H299.8z M331.5,1185.2c7.7,0,13.4-2.1,17.1-6.4c3.7-4.3,5.5-10,5.5-17.3
				c0-6.8-1.9-12.2-5.7-16.2c-3.8-4-9.3-6-16.5-6c-7.4,0-13.2,2.1-17.3,6.2c-4.2,4.2-6.3,9.6-6.3,16.4c0,7.2,2,12.9,5.9,17.1
				C318.1,1183.1,323.9,1185.2,331.5,1185.2z"/>
			<path d="M452.4,1245c-5.2,2.2-11.2,3.4-17.8,3.4c-6.6,0-12.5-1.1-17.8-3.4c-5.3-2.2-9.6-5.3-13.1-9.1c-3.4-3.9-6.3-8.5-8.6-13.8
				c-2.3-5.4-3.9-11.1-4.9-17.1c-1-6-1.5-12.4-1.5-19.2c0-6.9,0.5-13.4,1.5-19.5c1-6.1,2.7-11.8,5-17.2c2.3-5.4,5.2-10,8.7-13.8
				c3.5-3.8,7.8-6.9,13-9.1c5.2-2.2,11.1-3.4,17.6-3.4s12.4,1.1,17.6,3.4c5.2,2.2,9.5,5.3,13,9.1c3.4,3.9,6.3,8.5,8.6,13.9
				c2.3,5.4,4,11.1,4.9,17.2c1,6,1.5,12.5,1.5,19.5c0,6.8-0.5,13.2-1.5,19.2c-1,6-2.6,11.7-4.9,17.1c-2.3,5.4-5.1,10-8.6,13.9
				C462,1239.7,457.7,1242.8,452.4,1245z M423.3,1227.2c3.2,2.6,7,3.8,11.4,3.8c4.4,0,8.2-1.3,11.4-3.8c3.1-2.5,5.5-6.1,7.2-10.6
				c1.6-4.5,2.8-9.3,3.5-14.5c0.7-5.1,1.1-10.8,1.1-17.1c0-30.1-7.7-45.1-23.1-45.1c-15.3,0-23.1,14.9-23.3,44.8
				c0,6.3,0.4,12.1,1.1,17.2c0.7,5.2,1.9,10,3.6,14.6C417.7,1221.1,420.1,1224.7,423.3,1227.2z"/>
			<path d="M501.7,1246.6v-121.9H537c10.6,0,20.2,1.2,28.6,3.7c8.4,2.4,15.7,6.1,21.8,11c6.1,4.9,10.7,11.2,14,19
				c3.2,7.7,4.9,16.7,4.9,26.8c0,19.7-5.9,34.8-17.8,45.5c-11.9,10.6-28.3,15.9-49.3,15.9H501.7z M524.2,1228.6h16.1
				c13.9,0,24.5-3.6,31.8-10.9c7.3-7.3,10.9-17.9,10.9-31.9c0-15-3.7-25.9-11.2-32.6c-7.5-6.8-18.8-10.2-33.9-10.2h-13.7V1228.6z"/>
			<path d="M649.6,1248.4c-8.5,0-15.3-2.3-20.6-7c-5.2-4.7-7.9-11.4-7.9-20.3c0-9.5,3.1-16.5,9.3-21.1c6.2-4.6,15.6-7.5,28.1-8.7
				c1.7-0.2,3.6-0.4,5.6-0.7c2-0.2,4.2-0.4,6.7-0.7c2.5-0.2,4.5-0.4,5.9-0.6v-4.8c0-5.5-1.3-9.6-3.8-12.1c-2.6-2.5-6.4-3.8-11.6-3.8
				c-7.4,0-16.6,2.1-27.5,6.2c-0.1-0.2-1-2.7-2.7-7.6c-1.8-4.9-2.7-7.4-2.7-7.5c10.8-4.6,22.4-6.9,34.9-6.9c12.3,0,21.3,2.7,26.9,8
				c5.6,5.4,8.4,14,8.4,26v59.6h-16.1c-0.1-0.2-0.7-2.1-1.8-5.6c-1.2-3.5-1.7-5.4-1.7-5.6c-4.5,4.4-9,7.7-13.4,9.8
				C661.1,1247.3,655.8,1248.4,649.6,1248.4z M655.5,1232.9c5,0,9.4-1.2,13.2-3.6c3.7-2.4,6.4-5.3,8-8.8v-17.6
				c-0.2,0-1.6,0.1-4.4,0.3c-2.7,0.2-4.2,0.3-4.5,0.3c-8.8,0.8-15.3,2.4-19.4,5c-4.1,2.6-6.2,6.7-6.2,12.3c0,3.9,1.1,6.9,3.4,8.9
				C648,1231.9,651.3,1232.9,655.5,1232.9z"/>
			<path d="M725.3,1285.1c-3.5,0-7.3-0.2-11.3-0.7l-1.1-16.9c2.5,0.3,5.8,0.4,9.7,0.4c5,0,9.1-1,12.1-3c3-2,5.6-5.5,7.6-10.6
				c0.2-0.6,1.3-3.7,3.3-9.4l-36.8-89.8h23.3l24,66.3c1.8-6.6,5.8-18.9,11.9-36.8c6.2-17.9,9.6-27.8,10.2-29.5h23.3
				c-25.3,67-38.1,100.8-38.3,101.3c-3.9,10.3-8.9,17.6-14.9,22C742.4,1282.9,734.7,1285.1,725.3,1285.1z"/>
			<path d="M842.5,1248.3c-13.5,0-24.3-2.3-32.4-6.9l2.2-16.4c3.7,2,8.3,3.8,14,5.4c5.7,1.6,10.8,2.4,15.5,2.4
				c4.8,0,8.6-0.9,11.3-2.7c2.7-1.8,4.1-4.5,4.1-7.9c0-3.2-1.3-5.7-3.8-7.5c-2.5-1.8-7.3-4.1-14.4-6.8c-2.4-0.9-4-1.5-4.7-1.7
				c-8.4-3.3-14.5-6.9-18.2-10.9c-3.7-4-5.6-9.5-5.6-16.3c0-8.3,3-14.7,9-19.1c6-4.4,14.4-6.7,25.2-6.7c11.6,0,21.9,2.2,30.7,6.6
				l-5.4,15.1c-8.7-4-17-6.1-24.9-6.1c-4.4,0-7.8,0.7-10.3,2.2c-2.5,1.5-3.7,3.7-3.7,6.7c0,2.8,1.2,5,3.6,6.6c2.4,1.6,7,3.6,14,6.2
				c0.2,0.1,0.9,0.3,2.2,0.7c1.2,0.4,2.2,0.8,2.8,1.1c8.4,3.1,14.5,6.7,18.5,10.9c3.9,4.2,5.9,9.8,5.9,16.6
				c-0.1,9.1-3.2,16.2-9.3,21.2C862.5,1245.8,853.8,1248.3,842.5,1248.3z"/>
			<path d="M942.4,1229c-7.2-1.6-13-5.1-17.3-10.6c-6-7.7-9.1-18.5-9.1-32.5c0-14.1,3-25.1,9.1-33c4.3-5.6,10-9.1,17.2-10.8v-18.6
				c-13.9,1.6-25.3,7-34,16c-10.6,11-16,26.4-16,46.1c0,19.6,5.3,34.9,15.9,46c8.7,9.1,20.1,14.5,34,16.1V1229z"/>
			<path d="M995.3,1139.6c-8.8-9.2-20.2-14.5-34.3-16.1v18.5c7.4,1.6,13.3,5.2,17.6,10.8c6,7.8,9,18.8,9,33c0,14-3,24.9-9,32.6
				c-4.4,5.6-10.2,9.1-17.6,10.6v18.8c14-1.6,25.4-7,34.2-16.2c10.6-11.1,16-26.5,16-45.9C1011.2,1166,1005.9,1150.7,995.3,1139.6z"
				/>
			<path d="M1036.3,1246.6v-76.9h-14.5l1.4-12.8l13.1-1.7v-5.1c0-5.5,0.5-10.3,1.5-14.2c1-3.9,2.7-7.3,5-10.1
				c2.3-2.8,5.4-4.9,9.4-6.2c3.9-1.4,8.7-2,14.4-2c5.5,0,11.2,0.5,17,1.6l-1.9,16.2c-4.5-0.6-8.1-0.9-10.7-0.9c-4.7,0-8,1.1-9.9,3.4
				c-2,2.2-3,6-3,11.2v6.2h21.5v14.5h-21.5v76.9H1036.3z"/>
			<path d="M1095.9,1246.6v-121.9h35.3c10.6,0,20.2,1.2,28.6,3.7c8.4,2.4,15.7,6.1,21.8,11c6.1,4.9,10.7,11.2,14,19
				c3.2,7.7,4.9,16.7,4.9,26.8c0,19.7-5.9,34.8-17.8,45.5c-11.9,10.6-28.3,15.9-49.3,15.9H1095.9z M1118.4,1228.6h16.1
				c13.9,0,24.5-3.6,31.8-10.9c7.3-7.3,10.9-17.9,10.9-31.9c0-15-3.7-25.9-11.2-32.6c-7.5-6.8-18.8-10.2-33.9-10.2h-13.7V1228.6z"/>
			<path d="M1261.9,1248.4c-14.7,0-26.1-4.2-34.3-12.7c-8.2-8.5-12.3-20.1-12.3-35.1c0-14.5,3.9-26.1,11.6-34.7
				c7.7-8.6,18.2-12.9,31.5-13c12.6,0,22.4,3.9,29.3,11.8c7,7.9,10.4,18.3,10.4,31.4c0,0.9,0,2.5,0,4.6c0,2.1,0,3.7,0,4.7h-60.8
				c0.2,8.5,2.6,15.2,7,19.8c4.5,4.7,10.6,7,18.4,7c10,0,19.6-2.6,28.8-7.8l3.1,15.5C1285.4,1245.5,1274.5,1248.4,1261.9,1248.4z
				 M1237.7,1191.6h39.9c0-7.4-1.7-13.1-5.1-17.1c-3.4-4-8.1-6-14.1-6c-5.6,0-10.3,1.9-14.2,5.8
				C1240.5,1178.2,1238.2,1184,1237.7,1191.6z"/>
			<path d="M1341.2,1246.6l-36.4-91.4h23.1c0.9,2.5,3.7,10.2,8.4,23.2c4.7,13,7.9,21.9,9.4,26.6c3.2,9.2,5.4,16.2,6.8,20.9
				c0-0.1,0.5-1.9,1.4-5.4c0.9-3.5,1.8-6.9,2.7-10c0.9-3.1,1.4-5,1.6-5.7c0.1-0.1,2.6-7.8,7.6-23c5-15.2,8-24.1,8.9-26.6h23
				l-34.6,91.4H1341.2z"/>
			<path d="M1456,1228.9c-7.1-1.6-12.7-5.1-17-10.5c-6-7.7-9.1-18.5-9.1-32.5c0-14.1,3-25.1,9.1-33c4.2-5.5,9.9-9,16.9-10.7v-18.6
				c-13.8,1.7-25,7-33.7,16c-10.6,11-16,26.4-16,46.1c0,19.6,5.3,34.9,15.9,46c8.7,9.1,19.9,14.4,33.7,16.1V1228.9z"/>
			<path d="M1509.2,1139.6c-8.8-9.2-20.4-14.6-34.6-16.1v18.5c7.5,1.5,13.5,5.1,17.9,10.9c6,7.8,9,18.8,9,33c0,14-3,24.9-9,32.6
				c-4.4,5.6-10.4,9.2-17.9,10.7v18.7c14.1-1.6,25.7-7,34.5-16.2c10.6-11.1,16-26.5,16-45.9
				C1525.1,1166,1519.8,1150.7,1509.2,1139.6z"/>
			<path d="M1544.4,1284.6v-129.4h18.7l2.3,12.8c3-4.8,7-8.6,11.9-11.2c5-2.6,10.5-4,16.6-4c7.5,0,14.1,2.1,19.8,6.2
				c5.7,4.2,10,9.8,12.9,17c2.9,7.2,4.4,15.3,4.4,24.3c0,14.1-3.4,25.7-10.3,34.6c-6.8,8.9-16.1,13.4-27.8,13.4
				c-5.8,0-11-1.2-15.7-3.5c-4.7-2.3-8.6-5.4-11.8-9.4c0.4,8,0.7,12.5,0.7,13.5v34.5L1544.4,1284.6z M1588.3,1231.7
				c6.5,0,11.6-2.7,15.3-8.2c3.7-5.4,5.6-13.2,5.6-23.3c0-10.3-1.9-18-5.7-23.1c-3.8-5.2-9-7.7-15.7-7.7c-14.4,0-21.7,9.8-21.9,29.4
				c0,11.3,1.9,19.6,5.6,24.9C1575.4,1229.1,1580.9,1231.7,1588.3,1231.7z"/>
			<path d="M1678.1,1248.3c-13.5,0-24.3-2.3-32.4-6.9l2.2-16.4c3.7,2,8.3,3.8,14,5.4c5.7,1.6,10.8,2.4,15.5,2.4
				c4.8,0,8.6-0.9,11.3-2.7c2.7-1.8,4.1-4.5,4.1-7.9c0-3.2-1.3-5.7-3.8-7.5c-2.5-1.8-7.3-4.1-14.4-6.8c-2.4-0.9-4-1.5-4.7-1.7
				c-8.4-3.3-14.5-6.9-18.2-10.9c-3.7-4-5.6-9.5-5.6-16.3c0-8.3,3-14.7,9-19.1c6-4.4,14.4-6.7,25.2-6.7c11.6,0,21.9,2.2,30.7,6.6
				l-5.4,15.1c-8.7-4-17-6.1-24.9-6.1c-4.4,0-7.8,0.7-10.3,2.2c-2.5,1.5-3.7,3.7-3.7,6.7c0,2.8,1.2,5,3.6,6.6c2.4,1.6,7,3.6,14,6.2
				c0.2,0.1,0.9,0.3,2.2,0.7c1.2,0.4,2.2,0.8,2.8,1.1c8.4,3.1,14.5,6.7,18.5,10.9c3.9,4.2,5.9,9.8,5.9,16.6
				c-0.1,9.1-3.2,16.2-9.3,21.2C1698.1,1245.8,1689.4,1248.3,1678.1,1248.3z"/>
		</g>
	</g>
	<g>
		<g>
			<g>
				<linearGradient id="SVGID_1_" gradientUnits="userSpaceOnUse" x1="1103.0773" y1="843.8042" x2="1448.4863" y2="843.8042">
					<stop  offset="0" style="stop-color:#2196F3"/>
					<stop  offset="1" style="stop-color:#CD00D5"/>
				</linearGradient>
				<path class="st0" d="M1111.9,820.1c4.7,0,8.5-3.6,8.8-8.2l71.8-11.5c1.2,3.2,4.3,5.6,8,5.7l5.3,33.8c-1.8,1.2-3,3.2-3,5.6
					c0,0.5,0.1,1,0.2,1.5l-23.2,23.1c-0.7-0.2-1.5-0.4-2.2-0.4c-3.9,0-7,3.1-7,7c0,3.9,3.1,7,7,7s7-3.1,7-7c0-0.5,0-0.9-0.1-1.4
					l23.5-23.4c0.5,0.1,1,0.2,1.6,0.2c3.7,0,6.7-3,6.7-6.7c0-0.5-0.1-1.1-0.2-1.6l9-8.9c12.3-12.2,27.6-19.6,43.5-22.2
					c1.7,3.4,5.1,5.7,9.1,5.7c4.3,0,8-2.7,9.5-6.5c18.5,1.3,36.7,9,50.8,23.2c0.6,0.6,1.2,1.3,1.9,1.9c0,0.3,0,0.5,0,0.8
					c0,4.5,3.3,8.1,7.6,8.7c14.1,20.6,17.5,46.5,10.1,69.6c-2.6,0.9-4.4,3.4-4.4,6.3c0,1.1,0.3,2.2,0.8,3.1
					c-3.8,8.2-9.1,15.9-15.9,22.7c-9.4,9.4-21,16.3-33.7,20.1l-15.4,4.6l15.9,2.3c6.9,1,12.8,1.5,18.4,1.5c0,0,0,0,0,0
					c44.5,0,85.8-23.5,108.3-60.2c3.1-0.2,5.5-2.8,5.5-5.9c0-1-0.2-1.9-0.7-2.7c1.5-2.9,2.9-6,4.1-9c6.4-15.8,9-32.5,7.9-49.5
					c-0.6-9-2.3-18-5-26.9c1.1-1.7,1.8-3.7,1.8-5.9c0-4.9-3.3-9-7.8-10.2c-0.6-1.4-1.3-2.8-1.9-4.2c-9.6-19.5-24-37.6-41.6-52.2
					c-12-10-25.4-18.1-39.9-24.2c-0.5-3.4-3.4-6.1-6.9-6.1c-1.7,0-3.3,0.6-4.6,1.7c-2.1-0.7-4.2-1.4-6.3-2
					c-20.6-6.1-42.2-8.4-64.4-6.9c-13,0.9-25.7,3.1-38.1,6.5c-2.6-4.4-7.5-7.4-13-7.4c-8.3,0-15.1,6.8-15.1,15.1
					c0,0.8,0.1,1.6,0.2,2.4c-19.4,8.8-36.6,20.7-51.2,35.2l-39.1,39.2c-1-0.4-2.2-0.7-3.3-0.7c-4.8,0-8.8,3.9-8.8,8.8
					C1103.1,816.1,1107,820.1,1111.9,820.1z M1220.3,741.4c6.8,0,12.5-4.4,14.4-10.5l39.1,8.3c0.1,0.6,0.3,1.2,0.6,1.7l-68.1,49.5
					c-0.4-0.4-0.9-0.7-1.4-0.9l13.4-48.2C1218.9,741.4,1219.6,741.4,1220.3,741.4z M1340.2,729c0.9,2.2,2.9,3.8,5.3,4.2l2.4,27.1
					c-7.5,1.4-13.2,8-13.2,15.9c0,1.1,0.1,2.2,0.3,3.3l-49.2,22.8c-1.4-2.1-3.6-3.6-6.2-4.1l2.4-53.4c2.9-0.6,5.2-3.1,5.5-6.1
					L1340.2,729z M1424.6,819.9l-16.1,9.6c-2.4-3-6-4.9-10.2-4.9c-6.6,0-12,4.9-12.9,11.2H1357c-0.7-3.3-3.2-6-6.5-6.8l1.4-36.8
					c6.1-0.4,11.2-4.1,13.6-9.4l59.7,28.1c-0.9,1.5-1.3,3.3-1.3,5.2C1423.9,817.5,1424.1,818.7,1424.6,819.9z M1425,909.4
					l-59.3,10.1c-0.3-0.8-0.8-1.4-1.4-2c0.3-1.1,0.7-2.2,1-3.4l29.2-64c1.2,0.4,2.4,0.6,3.8,0.6c1.3,0,2.5-0.2,3.7-0.5l25,55.7
					C1426,906.7,1425.3,907.9,1425,909.4z M1219.9,829.9l-9,9c-0.5-0.1-1-0.2-1.5-0.2c-0.1,0-0.2,0-0.3,0l-5.2-33.3
					c3.2-1.3,5.5-4.5,5.5-8.2c0-1.3-0.3-2.6-0.8-3.7l67.7-50.2c0.7,0.6,1.5,1,2.4,1.3l-2.4,53.4c-4.2,0.5-7.6,3.6-8.6,7.6
					C1250.2,808.4,1233.4,816.4,1219.9,829.9z M1288.8,804.9l47.4-22c2.2,4.9,6.8,8.5,12.3,9.3L1347,829c-1.4,0.2-2.6,0.8-3.7,1.5
					c-0.2-0.2-0.3-0.3-0.5-0.5C1327.8,814.9,1308.5,806.5,1288.8,804.9z M1354.3,844.1c1.4-1.2,2.4-2.9,2.7-4.8h28.4
					c0.5,3.9,2.8,7.2,5.9,9.2l-23.5,51.5C1369.7,880.8,1365.2,861,1354.3,844.1z M1323,969.3c-1,0-2,0-3,0
					c8.4-4.2,16.1-9.7,22.7-16.3c7.2-7.2,12.9-15.4,17-24.1c3.4-0.1,6.1-2.7,6.5-6l58.9-10C1403.9,947.3,1364.9,969.3,1323,969.3z
					 M1433.8,895.9c-1.1,2.8-2.4,5.6-3.7,8.3l-24.9-55.5c3.7-2.3,6.1-6.4,6.1-11c0-1.8-0.4-3.5-1-5.1l16.1-9.6
					c1.9,2.3,4.8,3.8,8.1,3.8c0.9,0,1.8-0.1,2.7-0.4C1442.7,845.8,1444.3,870,1433.8,895.9z M1428.9,804.9c0.3,0.6,0.6,1.2,0.9,1.8
					c-0.8,0.4-1.5,0.9-2.2,1.5l-60.9-28.7c0.2-1.1,0.4-2.2,0.4-3.4c0-8.7-6.9-15.9-15.6-16.1l-2.4-27.1c0.7-0.3,1.4-0.6,2-1.1
					c13.6,5.8,26.4,13.5,38.1,23.2C1406,769,1419.7,786.3,1428.9,804.9z M1336.4,726.4l-49.3,8.6c-1.1-2.4-3.5-4.1-6.4-4.1
					c-2.8,0-5.2,1.7-6.4,4l-39-7.5c0-0.4,0-0.8,0-1.1c0-0.5,0-0.9-0.1-1.4C1268.6,715.7,1304.1,716.1,1336.4,726.4z M1159.2,768.9
					c14.4-14.3,30.9-25.6,48.8-33.9c1.7,2.4,4,4.2,6.8,5.3l-13.3,48.1c-0.3,0-0.5,0-0.8,0c-4.7,0-8.6,3.7-8.8,8.4l-71.8,11.4
					c0,0,0-0.1,0-0.1L1159.2,768.9z"/>
				<linearGradient id="SVGID_2_" gradientUnits="userSpaceOnUse" x1="743.8082" y1="943.3182" x2="1089.2173" y2="943.3182">
					<stop  offset="0" style="stop-color:#2196F3"/>
					<stop  offset="1" style="stop-color:#CD00D5"/>
				</linearGradient>
				<path class="st1" d="M1080.4,967.1c-4.7,0-8.5,3.6-8.8,8.2l-71.8,11.5c-1.2-3.2-4.3-5.6-8-5.7l-5.3-33.8c1.8-1.2,3-3.2,3-5.6
					c0-0.5-0.1-1-0.2-1.5l23.2-23.1c0.7,0.2,1.5,0.4,2.2,0.4c3.9,0,7-3.1,7-7c0-3.9-3.1-7-7-7c-3.9,0-7,3.1-7,7c0,0.5,0,0.9,0.1,1.4
					l-23.5,23.4c-0.5-0.1-1-0.2-1.6-0.2c-3.7,0-6.7,3-6.7,6.7c0,0.5,0.1,1.1,0.2,1.6l-9,8.9c-12.3,12.2-27.6,19.6-43.5,22.2
					c-1.7-3.4-5.1-5.7-9.1-5.7c-4.3,0-8,2.7-9.5,6.5c-18.5-1.3-36.7-9-50.8-23.2c-0.6-0.6-1.2-1.3-1.9-1.9c0-0.3,0-0.5,0-0.8
					c0-4.5-3.3-8.1-7.6-8.7c-14.1-20.6-17.5-46.5-10.1-69.6c2.6-0.9,4.4-3.4,4.4-6.3c0-1.1-0.3-2.2-0.8-3.1
					c3.8-8.2,9.1-15.9,15.9-22.7c9.4-9.4,21-16.3,33.7-20.1l15.4-4.6l-15.9-2.3c-6.9-1-12.8-1.5-18.4-1.5c0,0,0,0,0,0
					c-44.5,0-85.8,23.5-108.3,60.2c-3.1,0.2-5.5,2.8-5.5,5.9c0,1,0.2,1.9,0.7,2.7c-1.5,2.9-2.9,6-4.1,9c-6.4,15.8-9,32.5-7.9,49.5
					c0.6,9,2.3,18,5,26.9c-1.1,1.7-1.8,3.7-1.8,5.9c0,4.9,3.3,9,7.8,10.2c0.6,1.4,1.3,2.8,1.9,4.2c9.6,19.5,24,37.6,41.6,52.2
					c12,10,25.4,18.1,39.9,24.2c0.5,3.4,3.4,6.1,6.9,6.1c1.7,0,3.3-0.6,4.6-1.7c2.1,0.7,4.2,1.4,6.3,2c16.5,4.9,33.7,7.4,51.3,7.4
					c4.3,0,8.7-0.2,13.1-0.5c13-0.9,25.7-3.1,38.1-6.5c2.6,4.4,7.5,7.4,13,7.4c8.3,0,15.1-6.8,15.1-15.1c0-0.8-0.1-1.6-0.2-2.4
					c19.4-8.8,36.6-20.7,51.2-35.2l39.1-39.2c1,0.4,2.2,0.7,3.3,0.7c4.8,0,8.8-3.9,8.8-8.8S1085.3,967.1,1080.4,967.1z M972,1045.7
					c-6.1,0-11.4,3.7-13.8,8.9l-39.6-14.1c-0.1-0.7-0.3-1.3-0.5-1.9l67.9-42.1c0.5,0.4,1,0.8,1.6,1.1l-13.4,48.2
					C973.4,1045.7,972.7,1045.7,972,1045.7z M851.8,1057.6c-1-1.9-2.9-3.3-5.1-3.7l-2.4-27.1c7.5-1.4,13.2-8,13.2-15.9
					c0-1.1-0.1-2.2-0.3-3.3l49.2-22.8c1.4,2.1,3.6,3.6,6.1,4.1l-2.3,45.7c-3.2,0.7-5.5,3.4-5.6,6.8L851.8,1057.6z M767.7,967.2
					l16.1-9.6c2.4,3,6,4.9,10.2,4.9c6.6,0,12-4.9,12.9-11.2h28.4c0.7,3.3,3.2,6,6.5,6.8l-1.4,36.8c-6.1,0.4-11.2,4.1-13.6,9.4
					L767,976.1c0.9-1.5,1.3-3.3,1.3-5.2C768.4,969.6,768.1,968.4,767.7,967.2z M767.3,877.8l59.3-10.1c0.3,0.8,0.8,1.4,1.4,2
					c-0.3,1.1-0.7,2.2-1,3.4l-29.2,64c-1.2-0.4-2.4-0.6-3.8-0.6c-1.3,0-2.5,0.2-3.7,0.5l-25-55.7C766.3,880.4,767,879.2,767.3,877.8
					z M972.4,957.3l9-9c0.5,0.1,1,0.2,1.5,0.2c0.1,0,0.2,0,0.3,0l5.2,33.3c-3.2,1.3-5.5,4.5-5.5,8.2c0,1.1,0.2,2.2,0.6,3.2
					l-67.1,43.2c-0.8-0.7-1.7-1.2-2.7-1.6l2.3-45.7c4.2-0.5,7.6-3.6,8.6-7.6C942.1,978.7,958.9,970.7,972.4,957.3z M903.5,982.3
					l-47.4,22c-2.2-4.9-6.8-8.5-12.3-9.3l1.4-36.8c1.4-0.2,2.6-0.8,3.7-1.5c0.2,0.2,0.3,0.3,0.5,0.5
					C864.5,972.2,883.8,980.6,903.5,982.3z M838,943c-1.4,1.2-2.4,2.9-2.7,4.8h-28.4c-0.5-3.9-2.8-7.2-5.9-9.2l23.5-51.5
					C822.6,906.4,827.1,926.2,838,943z M869.3,817.8c1,0,2,0,3,0c-8.4,4.2-16.1,9.7-22.7,16.3c-7.2,7.2-12.9,15.4-17,24.1
					c-3.4,0.1-6.1,2.7-6.5,6l-58.9,10C788.4,839.8,827.4,817.8,869.3,817.8z M758.5,891.3c1.1-2.8,2.4-5.6,3.7-8.3l24.9,55.5
					c-3.7,2.3-6.1,6.4-6.1,11c0,1.8,0.4,3.5,1,5.1l-16.1,9.6c-1.9-2.3-4.8-3.8-8.1-3.8c-0.9,0-1.8,0.1-2.7,0.4
					C749.6,941.3,748,917.2,758.5,891.3z M763.4,982.2c-0.3-0.6-0.6-1.2-0.9-1.8c0.8-0.4,1.5-0.9,2.2-1.5l60.9,28.7
					c-0.2,1.1-0.4,2.2-0.4,3.4c0,8.7,6.9,15.9,15.6,16.1l2.4,27.1c-0.7,0.3-1.4,0.6-2,1.1c-13.6-5.8-26.4-13.5-38.1-23.2
					C786.3,1018.1,772.5,1000.8,763.4,982.2z M853.9,1060.1l51.6-15.1c1.2,2.1,3.5,3.5,6.1,3.5c2.5,0,4.7-1.3,6-3.4l39.6,12.7
					c-0.2,1-0.3,2-0.3,3c0,0.5,0,0.9,0.1,1.4C923.1,1071.6,886.8,1071,853.9,1060.1z M1033.1,1018.2c-14.4,14.3-30.9,25.6-48.8,33.9
					c-1.7-2.4-4-4.2-6.8-5.3l13.3-48.1c0.3,0,0.5,0,0.8,0c4.7,0,8.6-3.7,8.8-8.4l71.8-11.4c0,0,0,0.1,0,0.1L1033.1,1018.2z"/>
			</g>
		</g>
		<linearGradient id="SVGID_3_" gradientUnits="userSpaceOnUse" x1="735.1948" y1="892.14" x2="1457.6208" y2="892.14">
			<stop  offset="0" style="stop-color:#2196F3"/>
			<stop  offset="1" style="stop-color:#CD00D5"/>
		</linearGradient>
		<path class="st2" d="M1323,991.5c-35.2,0-67.4-12.7-92.2-33.6c-2.9-2.2-5.8-4.6-8.4-7.2l-73.9-72.5l-84.8-83.2l-27.6-27
			c-68.8-68.6-180.7-68.5-249.4,0.2c-33.5,33.5-50.6,77.2-51.5,121.1c18.1-55.8,71.6-96.4,134.6-96.4c35.2,0,67.4,12.7,92.2,33.6
			c2.9,2.2,5.8,4.6,8.4,7.2l186.3,182.8c21.5,21.4,47.1,36.1,74.3,44.1c4.1,1.2,8.3,2.3,12.5,3.2c56.8,12.3,118.5-3.5,162.5-47.5
			c33.5-33.5,50.6-77.2,51.5-121.1C1439.5,950.9,1386,991.5,1323,991.5z"/>
	</g>
	<g>
		<linearGradient id="SVGID_4_" gradientUnits="userSpaceOnUse" x1="626.0831" y1="496.0927" x2="1347.3966" y2="496.0927">
			<stop  offset="0" style="stop-color:#2196F3"/>
			<stop  offset="1" style="stop-color:#CD00D5"/>
		</linearGradient>
		<path class="st3" d="M561.2,505.5l10.1-4.2l162.5-76.1l176.8-210.3l-284.8,63.7L392.8,576l98.5-41.2
			c-12,38.2-20.4,56.7-17.4,106.6c-7.6,11.1-15.1,24.5-8.8,32.8c5,6.6,13.9,9.1,23.7,7.7c1.5,3,3,5.9,4.3,8.8
			c18.7,40.2-12.7,86.6-12.7,86.6l23.8-10.5c18.9-8.3,32.3-25.6,35.5-45.9c0.1-0.4,0.1-0.8,0.2-1.2c3.1-21.4-1.3-43.2-12.3-61.8
			c-0.9-1.5-1.5-2.5-1.8-2.7c5.1-9.8,6.5-21.1,0-27.3c-6.8-6.6-21-3.8-23-3.3C502,477.5,661.1,357,675.7,346.3
			c0.7-0.5,1.5-0.6,2.3-0.3c1.8,0.7,2.2,3,0.8,4.2C662.3,364.4,586,433.1,561.2,505.5z"/>
		<linearGradient id="SVGID_5_" gradientUnits="userSpaceOnUse" x1="626.0831" y1="591.8624" x2="1347.3966" y2="591.8624">
			<stop  offset="0" style="stop-color:#2196F3"/>
			<stop  offset="1" style="stop-color:#CD00D5"/>
		</linearGradient>
		<path class="st4" d="M1564.2,637.7c-23.3-22.3-53.2-36.7-86.3-41.7l-8.3-1.2l0.1-8.4c0.2-21.6-5.1-43.4-15.3-62.9
			c-13.3-25.3-34.2-46.2-60.4-60.5c-23.9-13.1-51.4-20-79.3-20c-2.6,0-5.1,0.1-7.7,0.2c-19.9,0.9-39.3,5.2-57.5,13l-10.7,4.6
			l-2.4-11.4c-6.4-29.8-22.7-56.4-47.2-77c-28.5-24-65.5-37.1-104.1-37.1c-41.5,0-80.3,14.8-109.4,41.8
			c-20.7,19.2-35,43.5-41.2,70.1l-2.9,12.6l-11.2-6.4c-6.8-3.9-12.9-6.9-19.2-9.5c-12.6-5.2-25.4-8.2-40.1-9.5l2.7-2.2
			c15.7-11.2,28.6-26.2,36.5-43.9c3.5-7.7,5.4-14.6,5.8-20.6c0.3-5.8-0.9-10.6-3.7-14.4l-36-46.5L750.5,447l-169.3,74.2l37.3,48.4
			c2.9,3.8,7.3,6.2,12.9,7.4c2.8,0.6,6,0.9,9.4,0.9c12.7,0,25-4.4,35.4-11.8l18.9-13.5c-1,6.3-1.5,12.8-1.5,19.3
			c0,4.6,0.3,9.5,0.8,14.5l1,8.9l-8.8,1.6c-31.6,5.9-60,20.5-82.1,42.2c-26.8,26.3-41.5,60.6-41.5,96.5c0,36.6,15.2,71.4,42.9,97.9
			c27.9,26.7,65.4,42.1,105.7,43.5l0.4,0l0.4,0.1l24.5,0c0.6-3,1.9-5.5,3.8-7.6c0.5-3.3,1-6.5,1.7-9.7c0-0.1,0.1-0.1,0.1-0.2h-20.9
			v0.4l-10-0.4c-34.3-1.3-66.4-14.7-90.3-37.6c-24.3-23.2-37.6-53.9-37.6-86.3c0-31.8,12.9-62,36.4-85.1
			c23.3-22.9,54.9-36.7,88.7-38.7l1.4-0.1l0.7,0c16.8,0.3,32.8,3.2,47.6,8.7c0,0.7-0.1,1.3-0.1,2c0,15.9,12.9,28.7,28.7,28.7
			c15.9,0,28.7-12.9,28.7-28.7s-12.9-28.7-28.7-28.7c-8.8,0-16.7,4-22,10.3c-13.1-4.7-26.9-7.8-41.2-9.1l-7.7-0.7l-1-7.6
			c-0.6-4.8-0.9-9.7-0.9-14.6c0-32.4,13.6-62.8,38.4-85.6c24.5-22.6,57.1-35.1,91.7-35.1c19.2,0,33.9,2.5,47.9,8.3
			c11.8,4.8,23.4,12.2,34.3,19.4l4.3,2.9v133.1c-10.3,4.4-17.5,14.6-17.5,26.5c0,15.9,12.9,28.8,28.8,28.8
			c15.9,0,28.7-12.9,28.7-28.8c0-12.5-8-23.2-19.3-27.1V583h62.6c21.5,0,41.8-7.7,57-21.8c15-13.8,23.3-32.1,23.3-51.5v-21.7
			c11.3-3.9,19.4-14.6,19.4-27.2c0-15.9-12.9-28.7-28.7-28.7c-15.9,0-28.7,12.9-28.7,28.7c0,11.8,7.2,22,17.4,26.4v22.4
			c0,15-6.3,29.1-17.8,39.6c-11.3,10.4-26.1,16.1-41.8,16.1h-62.6v-78.2h-0.1l0-9.7c0.1-33.8,14.1-65.4,39.4-88.9
			c25-23.2,58.4-36,94.2-36c33.2,0,65.1,11.4,89.7,32c23.4,19.6,38.4,45.9,42.7,74.6h0.4l0.1,1.4h0.1l0.4,7.1l0.7,7.7h-0.4l0,1.1
			l-0.1,10.7v104.2c-10.5,4.3-17.9,14.6-17.9,26.6c0,15.9,12.9,28.8,28.7,28.8s28.7-12.9,28.7-28.8c0-12.4-7.9-23-19-27V481.7
			l4.8-2.8c19.2-11,41.3-17.4,63.9-18.4c2.2-0.1,4.4-0.1,6.6-0.1c24.1,0,47.7,6,68.4,17.3c22.8,12.5,41,30.7,52.6,52.8
			c9,17,13.7,36,13.6,55l0,8.7l-8.7,0.9c-16.6,1.7-32.6,5.7-47.6,12.1c-0.3,0.1-0.7,0.3-1,0.5c-4.2-2.4-9-3.7-14.1-3.7
			c-15.9,0-28.7,12.9-28.7,28.7c0,15.9,12.9,28.8,28.7,28.8s28.7-12.9,28.7-28.8c0-3.8-0.8-7.5-2.1-10.8c13.8-5.5,28.6-8.8,44.1-9.7
			v-0.7l10,0.4c34.3,1.3,66.3,14.7,90.3,37.6c24.3,23.2,37.6,53.9,37.6,86.4c0,32.4-13.4,63.1-37.6,86.3
			c-23.9,22.9-56,36.2-90.3,37.6l-10,0.3v-0.4h-5.3v13.8c0,1.3-0.2,2.6-0.4,3.8h14.7l0.5-0.1l0.4,0c40.3-1.4,77.8-16.8,105.7-43.5
			c27.7-26.5,42.9-61.3,42.9-97.9C1607.2,699,1591.9,664.2,1564.2,637.7z"/>
	</g>
</g>
</svg>
