<?xml version="1.0" standalone="no"?>
<!DOCTYPE svg PUBLIC "-//W3C//DTD SVG 20010904//EN"
 "http://www.w3.org/TR/2001/REC-SVG-20010904/DTD/svg10.dtd">
<svg version="1.0" xmlns="http://www.w3.org/2000/svg"
 width="512.000000pt" height="512.000000pt" viewBox="0 0 512.000000 512.000000"
 preserveAspectRatio="xMidYMid meet">

<g transform="translate(0.000000,512.000000) scale(0.100000,-0.100000)"
fill="#000000" stroke="none">
<path d="M2959 4017 c-19 -12 -41 -37 -50 -54 -20 -39 -84 -491 -75 -527 4
-15 21 -43 39 -63 32 -34 41 -37 257 -89 124 -30 242 -54 263 -54 99 0 169 98
138 193 -16 49 -70 93 -122 102 -42 7 -42 8 -18 20 13 7 62 23 109 36 75 21
105 24 265 24 156 0 192 -3 265 -23 107 -29 285 -116 371 -181 191 -145 327
-353 390 -596 34 -130 34 -360 0 -490 -52 -199 -139 -353 -281 -496 -156 -158
-328 -250 -549 -294 -115 -24 -351 -16 -466 15 -102 27 -281 115 -366 179
-140 107 -261 261 -330 420 -57 134 -79 237 -89 430 -5 94 -18 212 -29 263
-109 521 -494 915 -1025 1050 -115 29 -395 36 -523 14 -370 -64 -703 -280
-907 -590 -98 -147 -168 -319 -203 -494 -24 -121 -24 -384 0 -505 111 -557
551 -986 1110 -1083 70 -12 133 -15 267 -11 195 5 292 24 456 90 l85 35 -6
-72 c-5 -59 -3 -77 13 -106 57 -105 210 -107 263 -3 20 39 84 491 75 527 -4
15 -21 43 -39 63 -32 34 -41 37 -257 89 -253 61 -292 64 -340 32 -114 -78 -81
-236 56 -272 l49 -13 -82 -26 c-129 -41 -200 -50 -362 -44 -179 6 -264 27
-416 102 -128 63 -216 127 -306 223 -125 131 -212 292 -260 477 -34 130 -34
360 0 490 63 243 199 451 390 596 86 65 264 152 371 181 74 20 109 23 265 23
217 0 289 -16 460 -100 178 -88 314 -205 420 -364 111 -169 161 -336 175 -588
11 -201 29 -300 79 -443 163 -463 566 -801 1054 -886 142 -25 409 -15 542 20
519 136 892 522 1008 1046 30 136 30 404 0 540 -118 531 -495 917 -1027 1052
-115 29 -395 36 -523 14 -100 -17 -265 -67 -326 -98 l-39 -19 7 73 c5 61 3 79
-13 108 -43 78 -142 105 -213 57z"/>
<path d="M1290 3302 c-48 -24 -78 -73 -86 -141 -6 -55 -8 -58 -41 -70 -33 -12
-37 -11 -66 17 -44 41 -69 52 -117 52 -139 0 -199 -159 -96 -259 34 -33 34
-33 19 -71 -15 -37 -16 -38 -74 -42 -91 -7 -152 -66 -152 -148 0 -82 61 -141
152 -148 58 -4 59 -5 74 -42 15 -38 15 -38 -19 -71 -103 -100 -43 -259 96
-259 48 0 73 11 117 52 29 28 33 29 66 17 33 -12 35 -15 41 -70 8 -68 38 -117
86 -141 100 -51 202 16 216 141 6 55 8 58 41 70 33 12 37 11 66 -17 44 -41 69
-52 117 -52 139 0 199 159 96 259 -34 33 -34 33 -19 71 15 37 16 38 74 42 91
7 152 66 152 148 0 82 -61 141 -152 148 -58 4 -59 5 -74 42 -15 38 -15 38 19
71 103 100 43 259 -96 259 -48 0 -73 -11 -117 -52 -29 -28 -33 -29 -66 -17
-33 12 -35 15 -41 70 -11 94 -72 159 -151 159 -16 0 -46 -8 -65 -18z m146
-491 c79 -36 125 -132 103 -213 -15 -59 -54 -106 -103 -129 -111 -50 -234 9
-265 129 -31 113 64 232 184 232 22 0 59 -9 81 -19z"/>
<path d="M3700 3152 c-48 -24 -78 -73 -86 -141 -6 -55 -8 -58 -41 -70 -33 -12
-37 -11 -66 17 -44 41 -69 52 -117 52 -139 0 -199 -159 -96 -259 34 -33 34
-33 19 -71 -15 -37 -16 -38 -74 -42 -91 -7 -152 -66 -152 -148 0 -82 61 -141
152 -148 58 -4 59 -5 74 -42 15 -38 15 -38 -19 -71 -103 -100 -43 -259 96
-259 48 0 73 11 117 52 29 28 33 29 66 17 33 -12 35 -15 41 -70 8 -68 38 -117
86 -141 100 -51 202 16 216 141 6 55 8 58 41 70 33 12 37 11 66 -17 44 -41 69
-52 117 -52 139 0 199 159 96 259 -34 33 -34 33 -19 71 15 37 16 38 74 42 91
7 152 66 152 148 0 82 -61 141 -152 148 -58 4 -59 5 -74 42 -15 38 -15 38 19
71 103 100 43 259 -96 259 -48 0 -73 -11 -117 -52 -29 -28 -33 -29 -66 -17
-33 12 -35 15 -41 70 -11 94 -72 159 -151 159 -16 0 -46 -8 -65 -18z m146
-491 c49 -23 88 -70 103 -128 22 -82 -24 -178 -103 -214 -111 -50 -234 9 -265
129 -31 113 64 232 184 232 22 0 59 -9 81 -19z"/>
</g>
</svg>
